<svg width="200" height="200" viewBox="0 0 200 200" fill="none" xmlns="http://www.w3.org/2000/svg">
<ellipse cx="25" cy="3.5" rx="25" ry="3.5" transform="matrix(1 0 0 -1 88.4341 174.948)" fill="black" fill-opacity="0.45"/>
<path d="M66.7133 128.448C49.9133 118.048 52.6544 103.105 65.6544 99.4485C81.6545 94.9484 46.9339 60.3028 56.9339 42.3028C66.9339 24.3028 90.9341 17.4484 113.934 35.9484C136.934 54.4484 98.934 79.9485 118.934 88.9485C138.934 97.9485 142.711 112.313 134.434 116.948C121.934 123.948 149.533 139.817 144.434 149.448C139.934 157.948 112.934 140.448 105.434 149.448C98.2766 158.037 97.4341 167.948 81.9341 160.448C66.4341 152.948 87.7133 141.448 66.7133 128.448Z" fill="#FF49E4"/>
<ellipse cx="72.5236" cy="49.9658" rx="12.8831" ry="9.29831" transform="rotate(-73.799 72.5236 49.9658)" fill="#D9D9D9" fill-opacity="0.45"/>
</svg>
